# Blender 4.3.1
# www.blender.org
mtllib AW101-BackRotor.mtl
o AW101_backrotor
v 0.279202 -18.141720 8.094266
v -0.253898 -6.449620 2.844166
v -0.253898 -18.141720 8.094266
v 0.279202 -6.449620 2.844166
v 0.279202 -7.271220 -0.337638
v 0.279202 -3.217220 -0.943634
v 0.279202 -19.468521 5.139265
v -0.253898 -19.468521 5.139265
v -0.253898 -7.271220 -0.337638
v -0.253898 -2.393120 2.920063
v 0.279202 -0.327820 0.275566
v -0.253898 -0.701420 -0.563538
v -0.253898 -0.327820 0.275566
v 0.279202 -0.701420 -0.563538
v 0.279202 -2.393120 2.920063
v -0.253898 -3.217220 -0.943634
v 0.279202 -8.966921 -17.902939
v -0.253898 -3.716921 -6.210937
v -0.253898 -8.966921 -17.902939
v 0.279202 -3.716921 -6.210937
v 0.279202 -0.535121 -7.032433
v 0.279202 0.070880 -2.978539
v 0.279202 -6.012022 -19.229836
v -0.253898 -6.012022 -19.229836
v -0.253898 -0.535121 -7.032433
v -0.253898 -3.792820 -2.154335
v 0.279202 -1.148320 -0.089035
v -0.253898 -0.309220 -0.462639
v -0.253898 -1.148320 -0.089035
v 0.279202 -0.309220 -0.462639
v 0.279202 -3.792920 -2.154335
v -0.253898 0.070880 -2.978539
v 0.279202 17.030180 -8.728234
v -0.253898 5.338180 -3.478234
v -0.253898 17.030180 -8.728234
v 0.279202 5.338180 -3.478234
v 0.279202 6.159680 -0.296334
v 0.279202 2.105781 0.309662
v 0.279202 18.357079 -5.773241
v -0.253898 18.357079 -5.773241
v -0.253898 6.159680 -0.296334
v -0.253898 1.281580 -3.554138
v 0.279202 -0.783720 -0.909637
v -0.253898 -0.410120 -0.070534
v -0.253898 -0.783720 -0.909637
v 0.279202 -0.410120 -0.070534
v 0.279202 1.281580 -3.554138
v -0.253898 2.105781 0.309662
v 0.279202 7.855482 17.268864
v -0.253898 2.605481 5.576866
v -0.253898 7.855482 17.268864
v 0.279202 2.605481 5.576866
v 0.279202 -0.576419 6.398365
v 0.279202 -1.182420 2.344463
v 0.279202 4.900482 18.595764
v -0.253898 4.900482 18.595764
v -0.253898 -0.576419 6.398365
v -0.253898 2.681380 1.520363
v 0.279202 0.036880 -0.545036
v -0.253898 -0.802220 -0.171432
v -0.253898 0.036880 -0.545036
v 0.279202 -0.802220 -0.171432
v 0.279202 2.681380 1.520363
v -0.253898 -1.182320 2.344463
vn -0.0000 -0.4973 0.8676
vn 1.0000 -0.0000 -0.0000
vn -0.0000 0.4973 -0.8676
vn -1.0000 -0.0000 -0.0000
vn -0.0000 -0.8676 -0.4973
vn -0.0000 0.8660 0.5000
vn -0.0000 -0.8199 0.5725
vn -0.0000 0.7133 -0.7009
vn -0.0000 -0.0347 0.9994
vn -0.0000 0.8878 -0.4603
vn -0.0003 -0.8676 -0.4973
vn -0.0000 0.8676 0.4973
vn -0.0000 -0.5000 0.8660
vn -0.0000 -0.5725 -0.8199
vn -0.0001 -0.5725 -0.8199
vn -0.0000 0.7009 0.7133
vn -0.0000 -0.9994 -0.0347
vn -0.0001 -0.9994 -0.0347
vn -0.0000 0.4603 0.8878
vn -0.0003 0.4603 0.8878
vn -0.0000 -0.8660 -0.5000
vn -0.0000 0.8199 -0.5725
vn -0.0000 -0.7133 0.7009
vn -0.0000 0.0347 -0.9994
vn -0.0000 -0.8878 0.4603
vn -0.0003 -0.8878 0.4603
vn -0.0000 0.5000 -0.8660
vn -0.0000 0.5725 0.8199
vn -0.0000 -0.7009 -0.7132
vn -0.0002 -0.7009 -0.7133
vn -0.0000 0.9994 0.0347
vn -0.0000 -0.4603 -0.8878
vn -0.0000 -0.4603 -0.8877
vn -0.0001 -0.4603 -0.8878
vt 0.587800 0.982700
vt 0.491800 0.978700
vt 0.587800 0.978700
vt 0.491800 0.982700
vt 0.491800 0.910200
vt 0.487700 0.934500
vt 0.458100 0.926200
vt 0.587800 0.934500
vt 0.587800 0.910200
vt 0.587800 0.939300
vt 0.487700 0.935300
vt 0.587800 0.935300
vt 0.487700 0.939300
vt 0.487700 0.940400
vt 0.491800 0.964600
vt 0.464300 0.977600
vt 0.587800 0.964600
vt 0.587800 0.940400
vt 0.587800 0.987700
vt 0.563500 0.983700
vt 0.587800 0.983700
vt 0.563500 0.987700
vt 0.587800 0.992800
vt 0.580900 0.988800
vt 0.587800 0.988800
vt 0.580900 0.992800
vt 0.464300 0.982700
vt 0.464300 0.978700
vt 0.458100 0.939300
vt 0.458100 0.935300
vt 0.458100 0.948700
vt 0.442100 0.965800
vt 0.442100 0.959000
vt 0.442100 0.982700
vt 0.442100 0.978700
vt 0.464300 0.897200
vt 0.442100 0.915900
vt 0.442100 0.909000
vt 0.442100 0.939300
vt 0.442100 0.935300
s 1
usemtl AW101_AW101_sha
f 1/1/1 2/2/1 3/3/1
f 1/1/1 4/4/1 2/2/1
f 4/5/2 5/6/2 6/7/2
f 4/5/2 7/8/2 5/6/2
f 1/9/2 7/8/2 4/5/2
f 8/10/3 5/11/3 7/12/3
f 8/10/3 9/13/3 5/11/3
f 9/14/4 2/15/4 10/16/4
f 9/14/4 3/17/4 2/15/4
f 8/18/4 3/17/4 9/14/4
f 7/19/5 3/20/5 8/21/5
f 7/19/5 1/22/5 3/20/5
f 11/23/6 12/24/6 13/25/6
f 11/23/6 14/26/6 12/24/6
f 15/27/7 2/2/7 4/4/7
f 15/27/7 10/28/7 2/2/7
f 16/29/8 5/11/8 9/13/8
f 16/29/8 6/30/8 5/11/8
f 16/31/4 13/32/4 12/33/4
f 16/31/4 10/16/4 13/32/4
f 9/14/4 10/16/4 16/31/4
f 11/34/9 10/28/9 15/27/9
f 11/34/9 13/35/9 10/28/9
f 15/36/2 14/37/2 11/38/2
f 15/36/2 6/7/2 14/37/2
f 4/5/2 6/7/2 15/36/2
f 12/39/10 6/30/10 16/29/10
f 12/39/10 14/40/10 6/30/10
f 17/1/11 18/2/5 19/3/5
f 17/1/11 20/4/5 18/2/5
f 20/5/2 21/6/2 22/7/2
f 20/5/2 23/8/2 21/6/2
f 17/9/2 23/8/2 20/5/2
f 24/10/12 21/11/12 23/12/12
f 24/10/12 25/13/12 21/11/12
f 25/14/4 18/15/4 26/16/4
f 25/14/4 19/17/4 18/15/4
f 24/18/4 19/17/4 25/14/4
f 23/19/3 19/20/3 24/21/3
f 23/19/3 17/22/3 19/20/3
f 27/23/13 28/24/13 29/25/13
f 27/23/13 30/26/13 28/24/13
f 31/27/14 18/2/14 20/4/14
f 31/27/14 26/28/15 18/2/14
f 32/29/16 21/11/16 25/13/16
f 32/29/16 22/30/16 21/11/16
f 32/31/4 29/32/4 28/33/4
f 32/31/4 26/16/4 29/32/4
f 25/14/4 26/16/4 32/31/4
f 27/34/17 26/28/17 31/27/18
f 27/34/17 29/35/17 26/28/17
f 31/36/2 30/37/2 27/38/2
f 31/36/2 22/7/2 30/37/2
f 20/5/2 22/7/2 31/36/2
f 28/39/19 22/30/19 32/29/19
f 28/39/19 30/40/20 22/30/19
f 33/1/3 34/2/3 35/3/3
f 33/1/3 36/4/3 34/2/3
f 36/5/2 37/6/2 38/7/2
f 36/5/2 39/8/2 37/6/2
f 33/9/2 39/8/2 36/5/2
f 40/10/1 37/11/1 39/12/1
f 40/10/1 41/13/1 37/11/1
f 41/14/4 34/15/4 42/16/4
f 41/14/4 35/17/4 34/15/4
f 40/18/4 35/17/4 41/14/4
f 39/19/12 35/20/12 40/21/12
f 39/19/12 33/22/12 35/20/12
f 43/23/21 44/24/21 45/25/21
f 43/23/21 46/26/21 44/24/21
f 47/27/22 34/2/22 36/4/22
f 47/27/22 42/28/22 34/2/22
f 48/29/23 37/11/23 41/13/23
f 48/29/23 38/30/23 37/11/23
f 48/31/4 45/32/4 44/33/4
f 48/31/4 42/16/4 45/32/4
f 41/14/4 42/16/4 48/31/4
f 43/34/24 42/28/24 47/27/24
f 43/34/24 45/35/24 42/28/24
f 47/36/2 46/37/2 43/38/2
f 47/36/2 38/7/2 46/37/2
f 36/5/2 38/7/2 47/36/2
f 44/39/25 38/30/25 48/29/25
f 44/39/25 46/40/26 38/30/25
f 49/1/12 50/2/12 51/3/12
f 49/1/12 52/4/12 50/2/12
f 52/5/2 53/6/2 54/7/2
f 52/5/2 55/8/2 53/6/2
f 49/9/2 55/8/2 52/5/2
f 56/10/5 53/11/5 55/12/5
f 56/10/5 57/13/5 53/11/5
f 57/14/4 50/15/4 58/16/4
f 57/14/4 51/17/4 50/15/4
f 56/18/4 51/17/4 57/14/4
f 55/19/1 51/20/1 56/21/1
f 55/19/1 49/22/1 51/20/1
f 59/23/27 60/24/27 61/25/27
f 59/23/27 62/26/27 60/24/27
f 63/27/28 50/2/28 52/4/28
f 63/27/28 58/28/28 50/2/28
f 64/29/29 53/11/29 57/13/29
f 64/29/29 54/30/30 53/11/29
f 64/31/4 61/32/4 60/33/4
f 64/31/4 58/16/4 61/32/4
f 57/14/4 58/16/4 64/31/4
f 59/34/31 58/28/31 63/27/31
f 59/34/31 61/35/31 58/28/31
f 63/36/2 62/37/2 59/38/2
f 63/36/2 54/7/2 62/37/2
f 52/5/2 54/7/2 63/36/2
f 60/39/32 54/30/33 64/29/34
f 60/39/32 62/40/32 54/30/33
